<?xml version="1.0" encoding="UTF-8" standalone="no"?>
<!-- Created with Inkscape (http://www.inkscape.org/) -->

<svg
   width="128mm"
   height="128mm"
   viewBox="0 0 128 128"
   version="1.1"
   id="svg195"
   xmlns="http://www.w3.org/2000/svg"
   xmlns:svg="http://www.w3.org/2000/svg">
  <defs
     id="defs192" />
  <rect
     style="fill:#ffffff;stroke-width:0.264583"
     id="rect392"
     width="128"
     height="128"
     x="0"
     y="0" />
  <path
     d="m 61.142908,28.064665 c -0.698388,1.852271 -1.283043,2.734029 -0.508647,0.04519 0.152017,-0.300297 -0.230134,-0.501204 -0.143429,-0.771745 0.219514,-0.293909 -0.0045,-2.535774 -0.270526,-2.703195 0.01808,-0.08451 -0.04414,-0.184963 0.04941,-0.255119 0.108929,0.136061 0.253518,0.06697 0.385859,0.06804 -0.305601,1.338313 1.181527,0.896106 0.487387,3.616853 m 11.64407,-9.556344 c 0.06916,-0.05953 -0.01507,-0.0042 -0.01762,0.04464 0.0045,-0.01648 0.009,-0.0319 0.01762,-0.04464 m 48.760168,14.68103 c -1.75024,-0.519268 -3.51958,-0.710607 -5.25599,-1.223502 -0.97051,-0.03089 -1.94634,-0.07653 -2.90942,-0.199852 -2.29713,-0.319415 -4.59001,0.122186 -6.88928,0.14132 -3.74175,0.100943 -7.497845,-0.423071 -11.226835,-0.03089 -4.925923,1.040132 -10.017146,1.54453 -14.970712,0.322098 -1.421757,-0.280109 -2.857857,-0.395983 -4.303539,-0.384276 -2.67503,0.254044 -5.668963,0.713801 -7.796536,-1.360633 -2.74572,-5.580746 3.336733,-1.57165 3.032188,-4.678262 0.01054,-0.299765 0.07231,-0.592088 0.272123,-0.817444 0.167957,-0.189213 0.119023,-0.403406 0.164235,-0.609627 0.04459,-0.202501 0.225358,-0.37258 0.185493,-0.609629 -0.09989,-0.395966 -0.267331,-1.050241 0.280111,-1.166638 0.117967,-0.02658 0.06057,0.106833 0.110584,0.163169 0.01356,-0.08238 0.01597,-0.358762 0.142977,-0.260435 0.05846,0.186025 -0.0223,0.789808 0.04098,0.940221 0.123844,-0.08291 0.04415,-0.33697 0.201961,-0.342285 0.21207,0.118525 -0.108928,0.339628 -0.01748,0.574018 1.952189,-4.008027 2.189766,-8.451884 -2.465626,-10.541202 -0.121734,-0.04943 -0.203031,-0.08504 -0.294981,0.0287 -0.09356,0.11533 -0.186019,0.09142 -0.292326,0.0027 -0.169538,-0.141381 -0.379484,-0.215257 -0.569754,-0.322088 -0.4151,-0.209411 -0.920569,0.06484 -1.384559,-0.212068 -0.387469,-0.196123 -0.521934,0.247147 -0.856252,0.290198 -1.918695,-0.03242 -5.313915,0.146699 -6.633086,1.680597 -0.743031,1.215537 -1.690161,2.421505 -2.055843,3.810311 -0.08136,0.559135 -0.284343,1.060338 -0.558606,1.54294 -0.492691,1.3415 -1.570038,2.591584 -1.095939,4.084031 -0.05213,0.543723 1.141121,2.507608 0.651081,2.603804 -0.246616,0.366212 -0.323151,0.848282 -0.111037,1.268686 0.609092,0.855708 -0.009,0.76483 -0.266278,1.521148 -0.12761,0.695209 -0.714344,1.483422 -0.04565,2.084544 0.11902,0.477806 -1.521676,-0.107421 -1.825695,-0.05153 -2.116425,-0.302964 -4.268992,0.02124 -6.348745,0.442205 -3.220888,0.864749 -6.560815,0.905141 -9.872582,0.77173 -1.950607,-0.234383 -3.854433,-0.774397 -5.825229,-0.865275 -4.796757,-0.147799 -9.58928,0.643111 -14.390301,0.233328 -2.095708,-0.201434 -4.159507,0.356102 -6.250426,0.40341 -0.757913,-0.01597 -1.352662,0.518213 -2.098885,0.571893 -1.7167353,0.21525 -3.3463143,0.82276 -5.0173393,1.235194 0.162638,0.08979 0.164235,0.257781 0.265208,0.364614 0.22908,0.241827 0.604859,0.206753 0.838187,0.4523 0.320486,0.172205 0.759497,0.009 1.107629,-0.02395 0.610162,-0.207821 1.188444,0.152529 1.793287,0.0075 0.115255,-0.01536 0.198239,-0.006 0.284342,0.07126 1.1778063,1.023139 2.4943253,-0.309849 3.4791953,0.0075 0.941284,0.555939 2.321052,0.517144 3.269236,-0.02079 0.509716,-0.344939 1.053964,-0.520866 1.676344,-0.468782 5.21347,0.579337 10.288739,2.029794 15.472982,2.787709 1.084261,0.145087 2.168506,0.08603 3.254366,-0.01642 2.426289,-0.02757 4.835568,0.377902 7.256537,0.503855 2.305638,0.154141 4.610752,0.326347 6.919041,0.439026 0.498025,0.02335 1.010377,0.09296 1.444611,0.356102 3.334096,2.918995 3.91396,11.617493 5.125244,16.053372 0.0919,1.259118 -0.748875,2.246113 -1.270282,3.312295 -0.587307,1.282501 -1.048119,2.613906 -1.513705,3.943715 -0.857306,1.85227 0.103654,4.142497 -1.059283,5.839044 -6.60865,5.685431 -11.242769,13.115243 -16.856454,19.698914 -1.556237,1.893732 -3.89588,2.925895 -5.64186,4.650068 -2.257277,2.295548 -4.116447,4.95996 -5.965538,7.58449 -1.621594,1.960164 -2.489009,4.733514 -4.72661,6.073964 -0.408186,0.19718 -0.724965,0.51821 -0.943935,0.93064 -0.334844,0.55968 -0.253005,1.21926 -0.372058,1.82198 -0.335898,0.73028 -0.473557,1.54027 -0.858902,2.24558 -0.376834,0.70316 -0.754194,1.36755 -1.149619,2.05637 -0.245562,0.52776 -0.596873,1.68537 0.256169,1.70822 0.07066,5.4e-4 0.120679,0.012 0.160514,0.0685 0.180176,0.29498 0.537347,-0.0362 0.693613,0.2514 0.163166,0.27266 0.400215,0.18762 0.649484,0.0919 0.669688,0.96998 0.786088,-0.35982 1.165046,8.7e-4 0.243423,0.23385 0.537874,0.32688 0.858903,0.31359 1.203313,-0.0366 1.604598,-1.55623 1.504138,-2.55438 0.009,-0.33697 -0.162639,-0.78077 0.07593,-1.05927 0.943936,-0.5666 0.284885,-1.74066 0.629823,-2.54269 1.778929,-3.39042 5.363348,-5.31445 8.427428,-7.43885 3.535003,-1.950604 5.300101,-6.054834 8.979662,-7.714696 2.242934,-1.021009 3.525435,-3.344715 5.622198,-4.609152 3.308047,-2.709575 6.678798,-5.347407 10.23878,-7.722139 2.108981,-1.513705 4.261022,-3.152309 5.881018,-5.178382 0.369933,-0.563923 0.5905,-1.258063 1.091704,-1.71993 1.521148,1.911797 3.957531,2.568724 6.272736,2.949278 1.660932,0.409798 3.350564,-0.456548 4.965257,0.149305 5.193281,1.739606 10.154274,4.073404 14.990384,6.623535 0.141922,0.08512 0.170608,0.152545 0.129719,0.315183 -0.572437,2.302445 -1.028457,4.634662 -1.125181,7.009388 -0.342829,3.472286 0.965722,6.775016 1.448318,10.16544 0.343356,2.57351 0.353978,5.17625 0.211543,7.76359 0.0324,1.13581 -0.494288,2.55438 0.332192,3.48185 1.979827,1.24849 4.611806,-0.53841 6.594821,0.81266 1.053431,0.56445 1.90383,1.64869 3.243206,1.29791 1.16292,-0.11646 1.01357,0.33219 2.36943,-0.13122 0.5182,0.18283 0.57774,-1.08533 0.22269,-1.28677 -0.72124,-1.13262 -2.41567,-0.9482 -3.311246,-1.91604 -1.29896,-0.87166 -2.34124,-2.05478 -3.57857,-2.99873 -0.6075,-0.44273 -0.940742,-1.01887 -1.018872,-1.75553 -0.344958,-6.57198 1.212882,-13.088675 1.646572,-19.625565 5.4e-4,-1.428673 1.103921,-2.552256 1.11455,-3.978262 -0.012,-3.144881 -2.843508,-5.167232 -5.086964,-6.929679 C 87.396522,72.665619 82.266503,67.996411 75.678584,66.66606 75.143888,66.560297 75.347989,65.904967 75.29696,65.510597 74.974349,63.141168 74.669789,60.696273 73.748709,58.472488 72.917451,56.742991 73.05829,54.781762 73.312876,52.933741 c 0.255129,-1.930388 0.108929,-3.88684 0.465062,-5.809274 1.375518,-2.027127 1.736411,-3.048141 1.105519,-5.479205 0.839769,-2.44012 2.392269,-2.996586 4.822278,-3.025829 2.586803,-0.289661 5.181049,-0.493761 7.767324,-0.787143 1.348941,-0.165833 2.701605,-0.297646 4.054275,-0.428916 1.492971,-0.08347 2.990199,0.179647 4.474141,-0.124898 5.086435,-0.8605 10.042125,-2.600633 15.188095,-3.057724 1.57642,0.389067 2.53205,1.241055 4.30088,0.521407 0.58199,-0.531501 1.27826,0.03134 1.94688,0.09356 0.59687,0.105763 1.19322,0.121131 1.6907,-0.322083 0.26575,-0.173803 0.60165,0.01507 0.87377,-0.169027 0.67181,-0.191339 1.47067,0.370988 2.07816,-0.07126 0.0967,-0.09085 0.19932,-0.13876 0.33008,-0.156793 0.3322,-0.02184 0.47197,-0.335914 0.58996,-0.608565 -0.49854,-0.104709 -0.98115,-0.183369 -1.45258,-0.318904"
     style="fill:#000000;fill-opacity:1;fill-rule:nonzero;stroke:none;stroke-width:0.531498"
     id="path32" />
</svg>
